<svg xmlns="http://www.w3.org/2000/svg" viewBox="0 0 421.34 98.99"><defs>
<style>

</style></defs><title>アセット 1@3x1</title><g id="レイヤー_2" data-name="レイヤー 2"><g id="レイヤー_1-2" data-name="レイヤー 1"><path class="cls-1" d="M25,7c11.27,5.53,12.64,19.78,12,31A165.31,165.31,0,0,1,26.37,86.1c-1.36,3.62,4.44,5.18,5.79,1.6C38.5,70.78,43.09,52.15,43.15,34,43.19,21.74,40,7.66,28.07,1.8,24.62.1,21.57,5.27,25,7Z"/><path class="cls-1" d="M16.22,52.6A89.31,89.31,0,0,0,0,92.58C-.27,94.74,1.31,97,3.73,96.27A184.85,184.85,0,0,0,61.86,68.16c3.1-2.25.11-7.45-3-5.19A179.93,179.93,0,0,1,2.13,90.48l3.69,3.69A85.66,85.66,0,0,1,21.41,55.63c2.27-3.13-2.94-6.13-5.19-3Z"/><path class="cls-1" d="M54.47,53.38,75.88,80.17c2.9,3.63,10.46,12,14.47,4.59,1.85-3.39-3.33-6.42-5.18-3,.2-.37-10.9-13.13-12.39-15L58.71,49.13c-2.41-3-6.63,1.26-4.24,4.25Z"/><path class="cls-1" d="M92.19,20.88a167.82,167.82,0,0,1,49.15-6.75c2.37,0,4.26-3.47,2.12-5.13L140,6.31c-3-2.33-7.29,1.89-4.24,4.25l3.48,2.69,2.12-5.12a174.22,174.22,0,0,0-50.74,7c-3.7,1.08-2.13,6.88,1.59,5.79Z"/><path class="cls-1" d="M127.94,7.26A775.26,775.26,0,0,0,121.57,96l5.89-.79-1.71-9.58c-.67-3.79-6.46-2.18-5.78,1.6l1.71,9.57c.6,3.41,5.84,2.49,5.89-.8a775.26,775.26,0,0,1,6.37-88.78c.49-3.82-5.51-3.79-6,0Z"/><path class="cls-1" d="M117.15,24.71A282,282,0,0,0,91.57,64.82l5.18,3,4-8.18c1.7-3.45-3.47-6.5-5.18-3l-4,8.19c-1.69,3.43,3.37,6.47,5.18,3a283.37,283.37,0,0,1,25.58-40.1c2.34-3.07-2.86-6.06-5.18-3Z"/><path class="cls-1" d="M119.67,39.14a47.58,47.58,0,0,1,27.09-4l-3-3-1.09,2.05c-2.81,2.66,1.43,6.9,4.24,4.24a8.66,8.66,0,0,0,2.85-6.29c.13-1.77-1.49-2.8-3-3A53.14,53.14,0,0,0,116.64,34c-3.49,1.64-.45,6.82,3,5.18Z"/><path class="cls-1" d="M109.76,54.44A141.26,141.26,0,0,0,147.22,51c3.77-.86,2.17-6.64-1.59-5.78a135.17,135.17,0,0,1-35.87,3.24c-3.86-.17-3.85,5.83,0,6Z"/><path class="cls-1" d="M246.77,1.28,211.78,48C209.46,51,214.67,54,217,51L252,4.31c2.31-3.09-2.89-6.09-5.18-3Z"/><path class="cls-1" d="M237.27,30a110.16,110.16,0,0,0-4.58,10.59c-1.16,3.12-2.83,6.77-2.86,10.14-.06,4.68,4.88,8.28,8.71,4.57,2.78-2.69-1.47-6.93-4.24-4.24,2-1.92,1.89-2,2.67-4.51.47-1.47,1-2.92,1.5-4.36a97.82,97.82,0,0,1,4-9.16c1.69-3.46-3.48-6.5-5.18-3Z"/><path class="cls-1" d="M256.31,15.05l-12.79,7.58c-3.32,2-.31,7.16,3,5.18l12.79-7.58c3.32-2,.3-7.15-3-5.18Z"/><path class="cls-1" d="M237.33,36.24a153.15,153.15,0,0,1,18.25-4.82q4.44-.87,8.93-1.44c2.2-.29,9.4-2,11.26-.56L274.39,26l-.1.74,2.89-2.2a6.09,6.09,0,0,1-2.17.07c-3.86-.21-3.85,5.79,0,6a6.09,6.09,0,0,0,2.17-.07c1.18-.16,2.7-.82,2.89-2.21l.11-.73a3.24,3.24,0,0,0-1.38-3.39c-2.39-1.81-5.31-1.15-8.12-.92q-5.58.46-11.11,1.34a151.2,151.2,0,0,0-23.84,5.79c-3.65,1.2-2.09,7,1.6,5.79Z"/><path class="cls-1" d="M256.54,33.83l-9.27,23.63c-1.41,3.59,4.39,5.15,5.79,1.59l9.26-23.62c1.41-3.6-4.39-5.16-5.78-1.6Z"/><path class="cls-1" d="M244.3,48.52a40.21,40.21,0,0,1,22.12-5.58c3.86.13,3.86-5.87,0-6a46.17,46.17,0,0,0-25.15,6.4c-3.33,1.94-.31,7.13,3,5.18Z"/><path class="cls-1" d="M238.08,57.65l21.14-2-2.13-5.12-4.47,3.72c-3,2.47,1.29,6.7,4.24,4.24l4.48-3.72c1.93-1.61.4-5.36-2.12-5.12l-21.14,2c-3.81.36-3.84,6.36,0,6Z"/><path class="cls-1" d="M236.08,57.92c-.27,4.2,2.89,7.68,6.82,8.75C247.58,68,252.15,65.44,256,63c3.26-2,.26-7.25-3-5.18-2.09,1.31-11.27,6.27-10.87.06.26-3.85-5.75-3.84-6,0Z"/><path class="cls-1" d="M182.27,94.44a984.16,984.16,0,0,1,94.88-28.76c3.75-.93,2.16-6.72-1.59-5.78a980.68,980.68,0,0,0-94.89,28.76c-3.6,1.29-2,7.09,1.6,5.78Z"/><path class="cls-1" d="M260,56.3a46.84,46.84,0,0,0-4.56,30.88c.72,3.79,6.5,2.18,5.79-1.6a40,40,0,0,1,3.95-26.25c1.79-3.42-3.38-6.46-5.18-3Z"/><path class="cls-1" d="M307.06,55.58A387.14,387.14,0,0,1,374.21,35l-3.39-4.41q-3.51,4.73-7.15,9.35-1.67,2.1-3.36,4.2l-1.13,1.38c-1.48.87-1.53,1.67-.13,2.39v3l.33-.76c1.5-3.51-3.67-6.57-5.19-3-2,4.59,2.51,8.17,6.74,5.32,3-2,5.33-6.19,7.53-9q3.84-4.87,7.54-9.86c1.7-2.28-1.09-4.89-3.38-4.41a388.11,388.11,0,0,0-67.16,20.63c-3.52,1.45-2,7.25,1.6,5.79Z"/><path class="cls-1" d="M355.92,29.25,341.34,42.12h4.24l-3.7-4.48c-2.46-3-6.68,1.28-4.24,4.24l3.7,4.48c1.07,1.31,3.12,1,4.24,0l14.58-12.87c2.91-2.56-1.35-6.79-4.24-4.24Z"/><path class="cls-1" d="M328.48,30.44C321,36.26,318.34,46,319.84,55.06c1.69,10.23,9.22,18.34,18.21,23,25.33,13.06,53.77-1,80.35,1.22,2.37.19,3.6-2.66,2.59-4.51A96.52,96.52,0,0,0,404.84,53c-2.71-2.76-6.95,1.49-4.24,4.24a91.06,91.06,0,0,1,15.21,20.52l2.59-4.52c-23.11-1.88-46.75,8.89-69.55,2.58-9-2.48-18-8.08-21.72-17-3.51-8.41-1.71-18.47,5.59-24.18,3-2.38-1.23-6.6-4.24-4.24Z"/></g></g></svg>
